<svg width="500" height="500" viewBox="0 0 500 500" fill="none" xmlns="http://www.w3.org/2000/svg">
<g clip-path="url(#clip0_602_3052)">
<path d="M0 0H500V500H0V0Z" fill="#FFC300"/>
<path d="M356.665 114.821H161.747C141.641 114.821 125.342 131.12 125.342 151.226C125.342 171.332 141.641 187.631 161.747 187.631H356.665C376.771 187.631 393.071 171.332 393.071 151.226C393.071 131.12 376.771 114.821 356.665 114.821Z" fill="white"/>
<path d="M271.69 213.772H161.747C141.641 213.772 125.342 230.071 125.342 250.177C125.342 270.283 141.641 286.582 161.747 286.582H271.69C291.796 286.582 308.096 270.283 308.096 250.177C308.096 230.071 291.796 213.772 271.69 213.772Z" fill="white"/>
<path d="M180.439 312.719H162.031C141.924 312.719 125.625 329.018 125.625 349.124C125.625 369.23 141.924 385.529 162.031 385.529H180.439C200.546 385.529 216.845 369.23 216.845 349.124C216.845 329.018 200.546 312.719 180.439 312.719Z" fill="white"/>
</g>
<defs>
<clipPath id="clip0_602_3052">
<rect width="500" height="500" rx="97.6562" fill="white"/>
</clipPath>
</defs>
</svg>
